<svg version="1.1" id="Layer_1" xmlns="http://www.w3.org/2000/svg" xmlns:xlink="http://www.w3.org/1999/xlink" x="0px" y="0px"
                   width="512" height="512" viewBox="0 0 512 512" enable-background="new 0 0 512 512" xml:space="preserve">
                  <path d="M462,257c0,113.771-92.229,206-206,206c-113.771,0-206-92.229-206-206c0-113.771,92.229-206,206-206
                    C369.771,51,462,143.229,462,257z M359.006,226.338c-40.929-40.929-81.869-81.87-122.798-122.8
                    c-8.303,8.305-16.609,16.612-24.916,24.917c15.423,15.422,30.851,30.85,46.273,46.271c-33.217,33.219-66.445,66.445-99.662,99.663
                    c40.929,40.929,81.87,81.869,122.798,122.799c8.305-8.304,16.612-16.61,24.918-24.915c-15.424-15.423-30.851-30.849-46.274-46.271
                    C292.561,292.783,325.789,259.554,359.006,226.338z"/>
                  <path fill-rule="evenodd" clip-rule="evenodd" d="M211.292,277.948c24.914-24.914,49.834-49.833,74.748-74.747
                    c5.34,5.339,10.681,10.678,16.02,16.017c-24.914,24.912-49.835,49.834-74.749,74.747
                    C221.973,288.627,216.631,283.288,211.292,277.948z"/>
                </svg>
